<mxfile host="app.diagrams.net" agent="Mozilla/5.0 (Windows NT 10.0; Win64; x64) AppleWebKit/537.36 (KHTML, like Gecko) Chrome/139.0.0.0 Safari/537.36" version="28.1.2" pages="2">
  <diagram id="X8CWSAGWYGkOe9u699Rs" name="Page-2">
    <mxGraphModel dx="703" dy="794" grid="1" gridSize="10" guides="1" tooltips="1" connect="1" arrows="1" fold="1" page="1" pageScale="1" pageWidth="850" pageHeight="1100" math="0" shadow="0">
      <root>
        <mxCell id="0" />
        <mxCell id="1" parent="0" />
        <mxCell id="2eFSMWUZNwaBWcs1PHV0-19" value="Empresa" style="swimlane;fontStyle=1;align=center;verticalAlign=top;childLayout=stackLayout;horizontal=1;startSize=26;horizontalStack=0;resizeParent=1;resizeParentMax=0;resizeLast=0;collapsible=1;marginBottom=0;whiteSpace=wrap;html=1;" parent="1" vertex="1">
          <mxGeometry x="300" y="240" width="250" height="360" as="geometry" />
        </mxCell>
        <mxCell id="2eFSMWUZNwaBWcs1PHV0-20" value="+ nombre: String&lt;div&gt;+ cuit: String&lt;/div&gt;&lt;div&gt;- empleados: List&amp;lt;Empleado&amp;gt;&lt;/div&gt;" style="text;strokeColor=none;fillColor=none;align=left;verticalAlign=top;spacingLeft=4;spacingRight=4;overflow=hidden;rotatable=0;points=[[0,0.5],[1,0.5]];portConstraint=eastwest;whiteSpace=wrap;html=1;" parent="2eFSMWUZNwaBWcs1PHV0-19" vertex="1">
          <mxGeometry y="26" width="250" height="54" as="geometry" />
        </mxCell>
        <mxCell id="2eFSMWUZNwaBWcs1PHV0-21" value="" style="line;strokeWidth=1;fillColor=none;align=left;verticalAlign=middle;spacingTop=-1;spacingLeft=3;spacingRight=3;rotatable=0;labelPosition=right;points=[];portConstraint=eastwest;strokeColor=inherit;" parent="2eFSMWUZNwaBWcs1PHV0-19" vertex="1">
          <mxGeometry y="80" width="250" height="8" as="geometry" />
        </mxCell>
        <mxCell id="2eFSMWUZNwaBWcs1PHV0-22" value="&lt;div&gt;+ &lt;u&gt;newConNombreCuit(String, int): Empresa&lt;/u&gt;&lt;/div&gt;&lt;div&gt;- initialize&lt;span style=&quot;background-color: transparent; color: light-dark(rgb(0, 0, 0), rgb(255, 255, 255));&quot;&gt;ConNombreCuit(String, int)&lt;/span&gt;&lt;/div&gt;&lt;div&gt;&lt;u&gt;&lt;br&gt;&lt;/u&gt;&lt;/div&gt;&lt;div&gt;+ newEmpleadoPlantaPermanente(): PlantaPermanente&lt;/div&gt;&lt;div&gt;+ newEmpleadoPlantaTemporaria():&lt;/div&gt;&lt;div&gt;PlantaTemporaria&lt;/div&gt;&lt;div&gt;&lt;div&gt;+ newEmpleadoContratado():&lt;/div&gt;&lt;div&gt;PlantaTemporaria&lt;/div&gt;&lt;/div&gt;&lt;div&gt;generarReciboDeHaberesPara(Empleado)&lt;/div&gt;&lt;div&gt;&lt;br&gt;&lt;/div&gt;+ sueldosNetosTotales(): int&lt;div&gt;+ sueldosBrutosTotales(): int&lt;/div&gt;&lt;div&gt;+ retencionesTotales(): int&lt;/div&gt;&lt;div&gt;+ liquidaciónDeSueldos()&lt;/div&gt;&lt;div&gt;+ empleados(): List&amp;lt;Empleado&amp;gt;&lt;/div&gt;" style="text;strokeColor=none;fillColor=none;align=left;verticalAlign=top;spacingLeft=4;spacingRight=4;overflow=hidden;rotatable=0;points=[[0,0.5],[1,0.5]];portConstraint=eastwest;whiteSpace=wrap;html=1;" parent="2eFSMWUZNwaBWcs1PHV0-19" vertex="1">
          <mxGeometry y="88" width="250" height="272" as="geometry" />
        </mxCell>
        <mxCell id="2eFSMWUZNwaBWcs1PHV0-23" value="Empleado" style="swimlane;fontStyle=1;align=center;verticalAlign=top;childLayout=stackLayout;horizontal=1;startSize=26;horizontalStack=0;resizeParent=1;resizeParentMax=0;resizeLast=0;collapsible=1;marginBottom=0;whiteSpace=wrap;html=1;" parent="1" vertex="1">
          <mxGeometry x="770" y="170" width="300" height="320" as="geometry">
            <mxRectangle x="720" y="375" width="90" height="30" as="alternateBounds" />
          </mxGeometry>
        </mxCell>
        <mxCell id="2eFSMWUZNwaBWcs1PHV0-24" value="- nombre: String&lt;div&gt;- dirección: String&lt;/div&gt;&lt;div&gt;- estadoCivil: String&lt;/div&gt;&lt;div&gt;- fecNac: Date&lt;/div&gt;&lt;div&gt;+ recibosDeHaberes: List&amp;lt;Empleado&amp;gt;&lt;/div&gt;&lt;div&gt;+&lt;u&gt;porcentajeObraSocial: int&lt;/u&gt;&lt;/div&gt;&lt;div&gt;&lt;i&gt;+&lt;u&gt;porcentajeAporteJub&lt;/u&gt;&lt;/i&gt;&lt;/div&gt;" style="text;strokeColor=none;fillColor=none;align=left;verticalAlign=top;spacingLeft=4;spacingRight=4;overflow=hidden;rotatable=0;points=[[0,0.5],[1,0.5]];portConstraint=eastwest;whiteSpace=wrap;html=1;" parent="2eFSMWUZNwaBWcs1PHV0-23" vertex="1">
          <mxGeometry y="26" width="300" height="114" as="geometry" />
        </mxCell>
        <mxCell id="2eFSMWUZNwaBWcs1PHV0-25" value="" style="line;strokeWidth=1;fillColor=none;align=left;verticalAlign=middle;spacingTop=-1;spacingLeft=3;spacingRight=3;rotatable=0;labelPosition=right;points=[];portConstraint=eastwest;strokeColor=inherit;" parent="2eFSMWUZNwaBWcs1PHV0-23" vertex="1">
          <mxGeometry y="140" width="300" height="8" as="geometry" />
        </mxCell>
        <mxCell id="2eFSMWUZNwaBWcs1PHV0-26" value="&lt;div&gt;&lt;span style=&quot;background-color: transparent; color: light-dark(rgb(0, 0, 0), rgb(255, 255, 255));&quot;&gt;+ dirección(): String&lt;/span&gt;&lt;/div&gt;&lt;div&gt;&lt;span style=&quot;background-color: transparent; color: light-dark(rgb(0, 0, 0), rgb(255, 255, 255));&quot;&gt;+ edad(): int&lt;/span&gt;&lt;/div&gt;&lt;div&gt;&lt;span style=&quot;background-color: transparent; color: light-dark(rgb(0, 0, 0), rgb(255, 255, 255));&quot;&gt;+ nombre(): String&lt;/span&gt;&lt;/div&gt;&lt;div&gt;&lt;span style=&quot;background-color: transparent; color: light-dark(rgb(0, 0, 0), rgb(255, 255, 255));&quot;&gt;+ recibirReciboDeHaberes(ReciboDeHaberes)&lt;/span&gt;&lt;/div&gt;&lt;div&gt;&lt;span style=&quot;background-color: transparent; color: light-dark(rgb(0, 0, 0), rgb(255, 255, 255));&quot;&gt;&lt;i&gt;+ conceptosPara(Empleado)&lt;/i&gt;&lt;/span&gt;&lt;/div&gt;&lt;div&gt;&lt;span style=&quot;background-color: transparent; color: light-dark(rgb(0, 0, 0), rgb(255, 255, 255));&quot;&gt;&lt;br&gt;&lt;/span&gt;&lt;/div&gt;&lt;div&gt;&lt;span style=&quot;background-color: transparent; color: light-dark(rgb(0, 0, 0), rgb(255, 255, 255));&quot;&gt;&lt;i&gt;+ sueldoBásico(): int&lt;/i&gt;&lt;/span&gt;&lt;/div&gt;&lt;div&gt;&lt;i&gt;+&amp;nbsp;&lt;/i&gt;sueldoNeto(): int&lt;/div&gt;&lt;div&gt;&lt;i&gt;+ totalRetenciones(): int&lt;/i&gt;&lt;/div&gt;&lt;div&gt;+ sueldoBruto(): int&lt;/div&gt;&lt;div&gt;&lt;i&gt;+ totalBonificaciones(): int&lt;/i&gt;&lt;/div&gt;" style="text;strokeColor=none;fillColor=none;align=left;verticalAlign=top;spacingLeft=4;spacingRight=4;overflow=hidden;rotatable=0;points=[[0,0.5],[1,0.5]];portConstraint=eastwest;whiteSpace=wrap;html=1;" parent="2eFSMWUZNwaBWcs1PHV0-23" vertex="1">
          <mxGeometry y="148" width="300" height="172" as="geometry" />
        </mxCell>
        <mxCell id="2eFSMWUZNwaBWcs1PHV0-32" value="*" style="text;strokeColor=none;fillColor=none;html=1;align=center;verticalAlign=middle;whiteSpace=wrap;rounded=0;fontSize=16;" parent="1" vertex="1">
          <mxGeometry x="530" y="320" width="60" height="30" as="geometry" />
        </mxCell>
        <mxCell id="2eFSMWUZNwaBWcs1PHV0-33" value="PlantaPermanente" style="swimlane;fontStyle=1;align=center;verticalAlign=top;childLayout=stackLayout;horizontal=1;startSize=26;horizontalStack=0;resizeParent=1;resizeParentMax=0;resizeLast=0;collapsible=1;marginBottom=0;whiteSpace=wrap;html=1;" parent="1" vertex="1">
          <mxGeometry x="1240" y="240" width="300" height="310" as="geometry" />
        </mxCell>
        <mxCell id="2eFSMWUZNwaBWcs1PHV0-34" value="- cantHijos: int&lt;div&gt;- añosAntiguedad: int&lt;/div&gt;&lt;div&gt;-&amp;nbsp;&lt;u&gt;porcentajeAporteJub&lt;/u&gt;: int&lt;/div&gt;" style="text;strokeColor=none;fillColor=none;align=left;verticalAlign=top;spacingLeft=4;spacingRight=4;overflow=hidden;rotatable=0;points=[[0,0.5],[1,0.5]];portConstraint=eastwest;whiteSpace=wrap;html=1;" parent="2eFSMWUZNwaBWcs1PHV0-33" vertex="1">
          <mxGeometry y="26" width="300" height="54" as="geometry" />
        </mxCell>
        <mxCell id="2eFSMWUZNwaBWcs1PHV0-35" value="" style="line;strokeWidth=1;fillColor=none;align=left;verticalAlign=middle;spacingTop=-1;spacingLeft=3;spacingRight=3;rotatable=0;labelPosition=right;points=[];portConstraint=eastwest;strokeColor=inherit;" parent="2eFSMWUZNwaBWcs1PHV0-33" vertex="1">
          <mxGeometry y="80" width="300" height="8" as="geometry" />
        </mxCell>
        <mxCell id="2eFSMWUZNwaBWcs1PHV0-36" value="&lt;div&gt;&lt;div&gt;&lt;u&gt;newConNombreDirecciónEstadoCivilFecNacCantHijos&lt;/u&gt;&lt;/div&gt;&lt;div&gt;&lt;u&gt;(String, String, String, Date, int): PlantaPermanente&lt;/u&gt;&lt;/div&gt;&lt;/div&gt;&lt;div&gt;-&amp;nbsp;&lt;span style=&quot;background-color: transparent; color: light-dark(rgb(0, 0, 0), rgb(255, 255, 255));&quot;&gt;initializeConNombreDirecciónEstadoCivil&lt;/span&gt;&lt;/div&gt;&lt;div&gt;FecNacCantHijos(String, String, String, Date, int)&lt;/div&gt;&lt;div&gt;&lt;br&gt;&lt;/div&gt;&lt;div&gt;+ conceptosPara(Empleado)&lt;/div&gt;&lt;div&gt;&lt;br&gt;&lt;/div&gt;&lt;div&gt;&lt;span style=&quot;background-color: transparent; color: light-dark(rgb(0, 0, 0), rgb(255, 255, 255));&quot;&gt;+ totalBonificaciones&lt;/span&gt;&lt;/div&gt;&lt;div&gt;+ totalAsignaciónPorHijo(): int&lt;/div&gt;&lt;div&gt;+ totalAsignaciónPorCónyuge(): int&lt;/div&gt;&lt;div&gt;+ totalPorAntigüedad(): int&lt;/div&gt;&lt;div&gt;+ totalRetenciones(): int&lt;/div&gt;&lt;div&gt;+ totalObraSocial(): int&lt;/div&gt;&lt;div&gt;+ totalAportesJubilatorios(): int&lt;/div&gt;" style="text;strokeColor=none;fillColor=none;align=left;verticalAlign=top;spacingLeft=4;spacingRight=4;overflow=hidden;rotatable=0;points=[[0,0.5],[1,0.5]];portConstraint=eastwest;whiteSpace=wrap;html=1;" parent="2eFSMWUZNwaBWcs1PHV0-33" vertex="1">
          <mxGeometry y="88" width="300" height="222" as="geometry" />
        </mxCell>
        <mxCell id="2eFSMWUZNwaBWcs1PHV0-37" value="PlantaTemporaria" style="swimlane;fontStyle=1;align=center;verticalAlign=top;childLayout=stackLayout;horizontal=1;startSize=26;horizontalStack=0;resizeParent=1;resizeParentMax=0;resizeLast=0;collapsible=1;marginBottom=0;whiteSpace=wrap;html=1;" parent="1" vertex="1">
          <mxGeometry x="1240" y="550" width="300" height="290" as="geometry" />
        </mxCell>
        <mxCell id="2eFSMWUZNwaBWcs1PHV0-38" value="+ fecDesignación: int&lt;div&gt;+ cantHorasExtra: int&lt;/div&gt;&lt;div&gt;-&amp;nbsp;&lt;u&gt;porcentajeAporteJub&lt;/u&gt;: int&lt;/div&gt;" style="text;strokeColor=none;fillColor=none;align=left;verticalAlign=top;spacingLeft=4;spacingRight=4;overflow=hidden;rotatable=0;points=[[0,0.5],[1,0.5]];portConstraint=eastwest;whiteSpace=wrap;html=1;" parent="2eFSMWUZNwaBWcs1PHV0-37" vertex="1">
          <mxGeometry y="26" width="300" height="54" as="geometry" />
        </mxCell>
        <mxCell id="2eFSMWUZNwaBWcs1PHV0-39" value="" style="line;strokeWidth=1;fillColor=none;align=left;verticalAlign=middle;spacingTop=-1;spacingLeft=3;spacingRight=3;rotatable=0;labelPosition=right;points=[];portConstraint=eastwest;strokeColor=inherit;" parent="2eFSMWUZNwaBWcs1PHV0-37" vertex="1">
          <mxGeometry y="80" width="300" height="8" as="geometry" />
        </mxCell>
        <mxCell id="2eFSMWUZNwaBWcs1PHV0-40" value="&lt;div&gt;&lt;div&gt;+ &lt;u&gt;newConNombreDirecciónEstadoCivilFecNac&lt;/u&gt;&lt;/div&gt;&lt;div&gt;&lt;u&gt;(String, String, String, Date): PlantaTemporaria&lt;/u&gt;&lt;/div&gt;&lt;/div&gt;&lt;div&gt;-initialize&lt;span style=&quot;background-color: transparent; color: light-dark(rgb(0, 0, 0), rgb(255, 255, 255));&quot;&gt;ConNombreDirecciónEstadoCivilFecNac&lt;/span&gt;&lt;span style=&quot;background-color: transparent; color: light-dark(rgb(0, 0, 0), rgb(255, 255, 255));&quot;&gt;(&lt;/span&gt;&lt;span style=&quot;background-color: transparent; color: light-dark(rgb(0, 0, 0), rgb(255, 255, 255));&quot;&gt;String, String, String, Date&lt;/span&gt;&lt;span style=&quot;background-color: transparent; color: light-dark(rgb(0, 0, 0), rgb(255, 255, 255));&quot;&gt;)&lt;/span&gt;&lt;/div&gt;&lt;div&gt;&lt;span style=&quot;background-color: transparent; color: light-dark(rgb(0, 0, 0), rgb(255, 255, 255));&quot;&gt;&lt;br&gt;&lt;/span&gt;&lt;/div&gt;&lt;div&gt;&lt;span style=&quot;background-color: transparent; color: light-dark(rgb(0, 0, 0), rgb(255, 255, 255));&quot;&gt;+ conceptosPara(Empleado)&lt;/span&gt;&lt;/div&gt;&lt;div&gt;&lt;br&gt;&lt;/div&gt;&lt;div&gt;+ totalRetenciones(): int&lt;/div&gt;&lt;div&gt;&lt;div&gt;+ totalObraSocial(): int&lt;/div&gt;&lt;div&gt;+ totalAportesJubilatorios(): int&lt;/div&gt;&lt;/div&gt;&lt;div&gt;+ totalBonificaciones(): int&lt;/div&gt;&lt;div&gt;+ totalHorasExtra(): int&lt;/div&gt;&lt;div&gt;&lt;br&gt;&lt;/div&gt;&lt;div&gt;&lt;br&gt;&lt;/div&gt;" style="text;strokeColor=none;fillColor=none;align=left;verticalAlign=top;spacingLeft=4;spacingRight=4;overflow=hidden;rotatable=0;points=[[0,0.5],[1,0.5]];portConstraint=eastwest;whiteSpace=wrap;html=1;" parent="2eFSMWUZNwaBWcs1PHV0-37" vertex="1">
          <mxGeometry y="88" width="300" height="202" as="geometry" />
        </mxCell>
        <mxCell id="2eFSMWUZNwaBWcs1PHV0-42" value="" style="endArrow=block;endSize=16;endFill=0;html=1;rounded=0;fontSize=12;curved=1;exitX=0;exitY=0.104;exitDx=0;exitDy=0;entryX=0.458;entryY=1.01;entryDx=0;entryDy=0;entryPerimeter=0;exitPerimeter=0;" parent="1" source="2eFSMWUZNwaBWcs1PHV0-40" target="2eFSMWUZNwaBWcs1PHV0-26" edge="1">
          <mxGeometry width="160" relative="1" as="geometry">
            <mxPoint x="720" y="550" as="sourcePoint" />
            <mxPoint x="880" y="550" as="targetPoint" />
            <Array as="points">
              <mxPoint x="980" y="550" />
            </Array>
          </mxGeometry>
        </mxCell>
        <mxCell id="2eFSMWUZNwaBWcs1PHV0-43" value="" style="endArrow=block;endSize=16;endFill=0;html=1;rounded=0;fontSize=12;curved=1;exitX=0;exitY=0.907;exitDx=0;exitDy=0;entryX=1;entryY=0.099;entryDx=0;entryDy=0;entryPerimeter=0;exitPerimeter=0;" parent="1" source="2eFSMWUZNwaBWcs1PHV0-34" target="2eFSMWUZNwaBWcs1PHV0-26" edge="1">
          <mxGeometry width="160" relative="1" as="geometry">
            <mxPoint x="990" y="599" as="sourcePoint" />
            <mxPoint x="1230" y="590" as="targetPoint" />
          </mxGeometry>
        </mxCell>
        <mxCell id="2eFSMWUZNwaBWcs1PHV0-44" value="ReciboDeHaberes" style="swimlane;fontStyle=1;align=center;verticalAlign=top;childLayout=stackLayout;horizontal=1;startSize=26;horizontalStack=0;resizeParent=1;resizeParentMax=0;resizeLast=0;collapsible=1;marginBottom=0;whiteSpace=wrap;html=1;" parent="1" vertex="1">
          <mxGeometry x="370" y="680" width="285" height="190" as="geometry" />
        </mxCell>
        <mxCell id="2eFSMWUZNwaBWcs1PHV0-45" value="+ nombreEmpleado: String&lt;div&gt;+ dirección: String&lt;/div&gt;&lt;div&gt;+ fecEmisión: Date&lt;/div&gt;&lt;div&gt;+ sueldoBruto: int&lt;/div&gt;&lt;div&gt;+ sueldoNeto: int&lt;/div&gt;&lt;div&gt;+ desgloceDeConceptos: DesgloceDeConceptos&lt;/div&gt;" style="text;strokeColor=none;fillColor=none;align=left;verticalAlign=top;spacingLeft=4;spacingRight=4;overflow=hidden;rotatable=0;points=[[0,0.5],[1,0.5]];portConstraint=eastwest;whiteSpace=wrap;html=1;" parent="2eFSMWUZNwaBWcs1PHV0-44" vertex="1">
          <mxGeometry y="26" width="285" height="114" as="geometry" />
        </mxCell>
        <mxCell id="2eFSMWUZNwaBWcs1PHV0-46" value="" style="line;strokeWidth=1;fillColor=none;align=left;verticalAlign=middle;spacingTop=-1;spacingLeft=3;spacingRight=3;rotatable=0;labelPosition=right;points=[];portConstraint=eastwest;strokeColor=inherit;" parent="2eFSMWUZNwaBWcs1PHV0-44" vertex="1">
          <mxGeometry y="140" width="285" height="8" as="geometry" />
        </mxCell>
        <mxCell id="2eFSMWUZNwaBWcs1PHV0-47" value="&lt;div&gt;&lt;u&gt;+ para:(Empleado): ReciboDeHaberes&lt;/u&gt;&lt;/div&gt;&lt;div&gt;- initializePara(Empleado)&lt;/div&gt;" style="text;strokeColor=none;fillColor=none;align=left;verticalAlign=top;spacingLeft=4;spacingRight=4;overflow=hidden;rotatable=0;points=[[0,0.5],[1,0.5]];portConstraint=eastwest;whiteSpace=wrap;html=1;" parent="2eFSMWUZNwaBWcs1PHV0-44" vertex="1">
          <mxGeometry y="148" width="285" height="42" as="geometry" />
        </mxCell>
        <mxCell id="2eFSMWUZNwaBWcs1PHV0-49" value="DesgloceDeConceptos" style="swimlane;fontStyle=1;align=center;verticalAlign=top;childLayout=stackLayout;horizontal=1;startSize=26;horizontalStack=0;resizeParent=1;resizeParentMax=0;resizeLast=0;collapsible=1;marginBottom=0;whiteSpace=wrap;html=1;" parent="1" vertex="1">
          <mxGeometry x="805" y="770" width="265" height="130" as="geometry" />
        </mxCell>
        <mxCell id="2eFSMWUZNwaBWcs1PHV0-50" value="+ conceptos: Map&amp;lt;String-int&amp;gt;" style="text;strokeColor=none;fillColor=none;align=left;verticalAlign=top;spacingLeft=4;spacingRight=4;overflow=hidden;rotatable=0;points=[[0,0.5],[1,0.5]];portConstraint=eastwest;whiteSpace=wrap;html=1;" parent="2eFSMWUZNwaBWcs1PHV0-49" vertex="1">
          <mxGeometry y="26" width="265" height="26" as="geometry" />
        </mxCell>
        <mxCell id="2eFSMWUZNwaBWcs1PHV0-51" value="" style="line;strokeWidth=1;fillColor=none;align=left;verticalAlign=middle;spacingTop=-1;spacingLeft=3;spacingRight=3;rotatable=0;labelPosition=right;points=[];portConstraint=eastwest;strokeColor=inherit;" parent="2eFSMWUZNwaBWcs1PHV0-49" vertex="1">
          <mxGeometry y="52" width="265" height="8" as="geometry" />
        </mxCell>
        <mxCell id="2eFSMWUZNwaBWcs1PHV0-52" value="&lt;div&gt;&lt;u&gt;+ paraEmpleado(Empleado): Concepto&lt;/u&gt;&lt;/div&gt;&lt;div&gt;- conceptosParaContratado(Empleado)&lt;/div&gt;&lt;div&gt;- conceptosParaPlantaPermanente(Empleado)&lt;/div&gt;&lt;div&gt;- conceptosParaPlantaTemporaria(Empleado)&lt;/div&gt;" style="text;strokeColor=none;fillColor=none;align=left;verticalAlign=top;spacingLeft=4;spacingRight=4;overflow=hidden;rotatable=0;points=[[0,0.5],[1,0.5]];portConstraint=eastwest;whiteSpace=wrap;html=1;" parent="2eFSMWUZNwaBWcs1PHV0-49" vertex="1">
          <mxGeometry y="60" width="265" height="70" as="geometry" />
        </mxCell>
        <mxCell id="2eFSMWUZNwaBWcs1PHV0-53" value="" style="endArrow=open;endFill=1;endSize=12;html=1;rounded=0;fontSize=12;curved=1;exitX=0.994;exitY=0.895;exitDx=0;exitDy=0;exitPerimeter=0;entryX=0;entryY=0.5;entryDx=0;entryDy=0;" parent="1" source="2eFSMWUZNwaBWcs1PHV0-45" target="2eFSMWUZNwaBWcs1PHV0-50" edge="1">
          <mxGeometry width="160" relative="1" as="geometry">
            <mxPoint x="340" y="790" as="sourcePoint" />
            <mxPoint x="500" y="790" as="targetPoint" />
          </mxGeometry>
        </mxCell>
        <mxCell id="2eFSMWUZNwaBWcs1PHV0-54" value="" style="endArrow=open;endFill=1;endSize=12;html=1;rounded=0;fontSize=12;curved=1;entryX=-0.019;entryY=0.415;entryDx=0;entryDy=0;entryPerimeter=0;exitX=0.982;exitY=0.11;exitDx=0;exitDy=0;exitPerimeter=0;" parent="1" source="2eFSMWUZNwaBWcs1PHV0-22" target="2eFSMWUZNwaBWcs1PHV0-24" edge="1">
          <mxGeometry width="160" relative="1" as="geometry">
            <mxPoint x="550" y="430" as="sourcePoint" />
            <mxPoint x="710" y="430" as="targetPoint" />
            <Array as="points">
              <mxPoint x="660" y="440" />
            </Array>
          </mxGeometry>
        </mxCell>
        <mxCell id="6N8s-r-Y1U5YUIzmjwI0-1" value="Contratado" style="swimlane;fontStyle=1;align=center;verticalAlign=top;childLayout=stackLayout;horizontal=1;startSize=26;horizontalStack=0;resizeParent=1;resizeParentMax=0;resizeLast=0;collapsible=1;marginBottom=0;whiteSpace=wrap;html=1;" parent="1" vertex="1">
          <mxGeometry x="1240" width="300" height="240" as="geometry" />
        </mxCell>
        <mxCell id="6N8s-r-Y1U5YUIzmjwI0-2" value="+ númeroDeContrato: int&lt;div&gt;+ medioDePago: String&lt;/div&gt;" style="text;strokeColor=none;fillColor=none;align=left;verticalAlign=top;spacingLeft=4;spacingRight=4;overflow=hidden;rotatable=0;points=[[0,0.5],[1,0.5]];portConstraint=eastwest;whiteSpace=wrap;html=1;" parent="6N8s-r-Y1U5YUIzmjwI0-1" vertex="1">
          <mxGeometry y="26" width="300" height="34" as="geometry" />
        </mxCell>
        <mxCell id="6N8s-r-Y1U5YUIzmjwI0-3" value="" style="line;strokeWidth=1;fillColor=none;align=left;verticalAlign=middle;spacingTop=-1;spacingLeft=3;spacingRight=3;rotatable=0;labelPosition=right;points=[];portConstraint=eastwest;strokeColor=inherit;" parent="6N8s-r-Y1U5YUIzmjwI0-1" vertex="1">
          <mxGeometry y="60" width="300" height="8" as="geometry" />
        </mxCell>
        <mxCell id="6N8s-r-Y1U5YUIzmjwI0-4" value="&lt;div&gt;&lt;div&gt;+&lt;u&gt;newConNombreDirecciónEstadoCivilFecNacNroContratoMedioDePago&lt;/u&gt;&lt;/div&gt;&lt;div&gt;&lt;u&gt;(String, String, String, Date, int, String): Contratado&lt;/u&gt;&lt;/div&gt;&lt;/div&gt;&lt;div&gt;- initializeConNombreDirecciónEstadoCivil&lt;/div&gt;&lt;div&gt;FecNacNumeroDeContratoMedioDePago(String, String, String, Date, int, String)&lt;/div&gt;&lt;div&gt;&lt;br&gt;&lt;/div&gt;&lt;div&gt;+ conceptosPara(Empleado)&lt;/div&gt;&lt;div&gt;&lt;br&gt;&lt;/div&gt;&lt;div&gt;+ totalRetenciones(): int&lt;/div&gt;&lt;div&gt;&lt;div&gt;+ totalGastosAdministrativos(): int&lt;/div&gt;&lt;/div&gt;&lt;div&gt;+ totalBonificaciones(): int&lt;/div&gt;&lt;div&gt;&lt;br&gt;&lt;/div&gt;&lt;div&gt;&lt;br&gt;&lt;/div&gt;&lt;div&gt;&lt;br&gt;&lt;/div&gt;" style="text;strokeColor=none;fillColor=none;align=left;verticalAlign=top;spacingLeft=4;spacingRight=4;overflow=hidden;rotatable=0;points=[[0,0.5],[1,0.5]];portConstraint=eastwest;whiteSpace=wrap;html=1;" parent="6N8s-r-Y1U5YUIzmjwI0-1" vertex="1">
          <mxGeometry y="68" width="300" height="172" as="geometry" />
        </mxCell>
        <mxCell id="6N8s-r-Y1U5YUIzmjwI0-5" value="" style="endArrow=block;endSize=16;endFill=0;html=1;rounded=0;fontSize=12;curved=1;exitX=0.004;exitY=0.326;exitDx=0;exitDy=0;exitPerimeter=0;entryX=1;entryY=0.5;entryDx=0;entryDy=0;" parent="1" source="6N8s-r-Y1U5YUIzmjwI0-4" target="2eFSMWUZNwaBWcs1PHV0-24" edge="1">
          <mxGeometry width="160" relative="1" as="geometry">
            <mxPoint x="1365" y="637" as="sourcePoint" />
            <mxPoint x="1360" y="380" as="targetPoint" />
          </mxGeometry>
        </mxCell>
        <mxCell id="9EMN_AWB1uirxtKgzcJA-1" value="" style="endArrow=open;endFill=1;endSize=12;html=1;rounded=0;fontSize=12;curved=1;exitX=0.003;exitY=0.355;exitDx=0;exitDy=0;entryX=0.5;entryY=0;entryDx=0;entryDy=0;exitPerimeter=0;" edge="1" parent="1" source="2eFSMWUZNwaBWcs1PHV0-26" target="2eFSMWUZNwaBWcs1PHV0-44">
          <mxGeometry width="160" relative="1" as="geometry">
            <mxPoint x="760" y="540" as="sourcePoint" />
            <mxPoint x="887" y="606" as="targetPoint" />
            <Array as="points" />
          </mxGeometry>
        </mxCell>
        <mxCell id="9EMN_AWB1uirxtKgzcJA-2" value="*" style="text;strokeColor=none;fillColor=none;html=1;align=center;verticalAlign=middle;whiteSpace=wrap;rounded=0;fontSize=16;" vertex="1" parent="1">
          <mxGeometry x="720" y="360" width="60" height="30" as="geometry" />
        </mxCell>
        <mxCell id="9EMN_AWB1uirxtKgzcJA-3" value="1" style="text;strokeColor=none;fillColor=none;html=1;align=center;verticalAlign=middle;whiteSpace=wrap;rounded=0;fontSize=16;" vertex="1" parent="1">
          <mxGeometry x="500" y="630" width="60" height="30" as="geometry" />
        </mxCell>
        <mxCell id="9EMN_AWB1uirxtKgzcJA-5" value="*" style="text;strokeColor=none;fillColor=none;html=1;align=center;verticalAlign=middle;whiteSpace=wrap;rounded=0;fontSize=16;" vertex="1" parent="1">
          <mxGeometry x="710" y="220" width="60" height="30" as="geometry" />
        </mxCell>
        <mxCell id="9EMN_AWB1uirxtKgzcJA-6" value="1" style="text;strokeColor=none;fillColor=none;html=1;align=center;verticalAlign=middle;whiteSpace=wrap;rounded=0;fontSize=16;" vertex="1" parent="1">
          <mxGeometry x="745" y="770" width="60" height="30" as="geometry" />
        </mxCell>
        <mxCell id="9EMN_AWB1uirxtKgzcJA-7" value="1" style="text;strokeColor=none;fillColor=none;html=1;align=center;verticalAlign=middle;whiteSpace=wrap;rounded=0;fontSize=16;" vertex="1" parent="1">
          <mxGeometry x="650" y="770" width="60" height="30" as="geometry" />
        </mxCell>
      </root>
    </mxGraphModel>
  </diagram>
  <diagram name="Page-1" id="enISbWj_i5OGyuwguK-t">
    <mxGraphModel dx="703" dy="787" grid="1" gridSize="10" guides="1" tooltips="1" connect="1" arrows="1" fold="1" page="1" pageScale="1" pageWidth="850" pageHeight="1100" math="0" shadow="0">
      <root>
        <mxCell id="0" />
        <mxCell id="1" parent="0" />
        <mxCell id="82EgqDNztt_MjqkxvQMU-1" value="" style="ellipse;whiteSpace=wrap;html=1;aspect=fixed;" parent="1" vertex="1">
          <mxGeometry x="330" y="110" width="80" height="80" as="geometry" />
        </mxCell>
        <mxCell id="82EgqDNztt_MjqkxvQMU-2" value="10" style="text;strokeColor=none;fillColor=none;html=1;align=center;verticalAlign=middle;whiteSpace=wrap;rounded=0;fontSize=16;" parent="1" vertex="1">
          <mxGeometry x="340" y="135" width="60" height="30" as="geometry" />
        </mxCell>
        <mxCell id="82EgqDNztt_MjqkxvQMU-3" value="" style="endArrow=none;html=1;rounded=0;fontSize=12;startSize=8;endSize=8;curved=1;" parent="1" edge="1">
          <mxGeometry width="50" height="50" relative="1" as="geometry">
            <mxPoint x="290" y="230" as="sourcePoint" />
            <mxPoint x="340" y="180" as="targetPoint" />
          </mxGeometry>
        </mxCell>
        <mxCell id="82EgqDNztt_MjqkxvQMU-4" value="" style="endArrow=none;html=1;rounded=0;fontSize=12;startSize=8;endSize=8;curved=1;" parent="1" target="82EgqDNztt_MjqkxvQMU-1" edge="1">
          <mxGeometry width="50" height="50" relative="1" as="geometry">
            <mxPoint x="450" y="230" as="sourcePoint" />
            <mxPoint x="450" y="180" as="targetPoint" />
          </mxGeometry>
        </mxCell>
        <mxCell id="82EgqDNztt_MjqkxvQMU-5" value="" style="ellipse;whiteSpace=wrap;html=1;aspect=fixed;" parent="1" vertex="1">
          <mxGeometry x="220" y="210" width="80" height="80" as="geometry" />
        </mxCell>
        <mxCell id="82EgqDNztt_MjqkxvQMU-6" value="5" style="text;strokeColor=none;fillColor=none;html=1;align=center;verticalAlign=middle;whiteSpace=wrap;rounded=0;fontSize=16;" parent="1" vertex="1">
          <mxGeometry x="230" y="235" width="60" height="30" as="geometry" />
        </mxCell>
        <mxCell id="82EgqDNztt_MjqkxvQMU-7" value="" style="endArrow=none;html=1;rounded=0;fontSize=12;startSize=8;endSize=8;curved=1;" parent="1" edge="1">
          <mxGeometry width="50" height="50" relative="1" as="geometry">
            <mxPoint x="180" y="325" as="sourcePoint" />
            <mxPoint x="230" y="275" as="targetPoint" />
          </mxGeometry>
        </mxCell>
        <mxCell id="82EgqDNztt_MjqkxvQMU-8" value="" style="endArrow=none;html=1;rounded=0;fontSize=12;startSize=8;endSize=8;curved=1;" parent="1" target="82EgqDNztt_MjqkxvQMU-5" edge="1">
          <mxGeometry width="50" height="50" relative="1" as="geometry">
            <mxPoint x="360" y="340" as="sourcePoint" />
            <mxPoint x="460" y="190" as="targetPoint" />
          </mxGeometry>
        </mxCell>
        <mxCell id="82EgqDNztt_MjqkxvQMU-9" value="" style="ellipse;whiteSpace=wrap;html=1;aspect=fixed;" parent="1" vertex="1">
          <mxGeometry x="440" y="220" width="80" height="80" as="geometry" />
        </mxCell>
        <mxCell id="82EgqDNztt_MjqkxvQMU-10" value="20" style="text;strokeColor=none;fillColor=none;html=1;align=center;verticalAlign=middle;whiteSpace=wrap;rounded=0;fontSize=16;" parent="1" vertex="1">
          <mxGeometry x="450" y="245" width="60" height="30" as="geometry" />
        </mxCell>
        <mxCell id="82EgqDNztt_MjqkxvQMU-12" value="" style="endArrow=none;html=1;rounded=0;fontSize=12;startSize=8;endSize=8;curved=1;" parent="1" target="82EgqDNztt_MjqkxvQMU-9" edge="1">
          <mxGeometry width="50" height="50" relative="1" as="geometry">
            <mxPoint x="580" y="330" as="sourcePoint" />
            <mxPoint x="580" y="280" as="targetPoint" />
          </mxGeometry>
        </mxCell>
        <mxCell id="82EgqDNztt_MjqkxvQMU-13" value="" style="ellipse;whiteSpace=wrap;html=1;aspect=fixed;" parent="1" vertex="1">
          <mxGeometry x="120" y="320" width="80" height="80" as="geometry" />
        </mxCell>
        <mxCell id="82EgqDNztt_MjqkxvQMU-14" value="3" style="text;strokeColor=none;fillColor=none;html=1;align=center;verticalAlign=middle;whiteSpace=wrap;rounded=0;fontSize=16;" parent="1" vertex="1">
          <mxGeometry x="130" y="345" width="60" height="30" as="geometry" />
        </mxCell>
        <mxCell id="82EgqDNztt_MjqkxvQMU-15" value="" style="endArrow=none;html=1;rounded=0;fontSize=12;startSize=8;endSize=8;curved=1;" parent="1" edge="1">
          <mxGeometry width="50" height="50" relative="1" as="geometry">
            <mxPoint x="80" y="435" as="sourcePoint" />
            <mxPoint x="130" y="385" as="targetPoint" />
          </mxGeometry>
        </mxCell>
        <mxCell id="82EgqDNztt_MjqkxvQMU-18" value="" style="ellipse;whiteSpace=wrap;html=1;aspect=fixed;" parent="1" vertex="1">
          <mxGeometry x="300" y="330" width="80" height="80" as="geometry" />
        </mxCell>
        <mxCell id="82EgqDNztt_MjqkxvQMU-19" value="7" style="text;strokeColor=none;fillColor=none;html=1;align=center;verticalAlign=middle;whiteSpace=wrap;rounded=0;fontSize=16;" parent="1" vertex="1">
          <mxGeometry x="310" y="355" width="60" height="30" as="geometry" />
        </mxCell>
        <mxCell id="82EgqDNztt_MjqkxvQMU-20" value="" style="endArrow=none;html=1;rounded=0;fontSize=12;startSize=8;endSize=8;curved=1;" parent="1" edge="1">
          <mxGeometry width="50" height="50" relative="1" as="geometry">
            <mxPoint x="260" y="445" as="sourcePoint" />
            <mxPoint x="310" y="395" as="targetPoint" />
          </mxGeometry>
        </mxCell>
        <mxCell id="82EgqDNztt_MjqkxvQMU-21" value="" style="ellipse;whiteSpace=wrap;html=1;aspect=fixed;" parent="1" vertex="1">
          <mxGeometry x="560" y="320" width="80" height="80" as="geometry" />
        </mxCell>
        <mxCell id="82EgqDNztt_MjqkxvQMU-22" value="35" style="text;strokeColor=none;fillColor=none;html=1;align=center;verticalAlign=middle;whiteSpace=wrap;rounded=0;fontSize=16;" parent="1" vertex="1">
          <mxGeometry x="570" y="345" width="60" height="30" as="geometry" />
        </mxCell>
        <mxCell id="82EgqDNztt_MjqkxvQMU-23" value="" style="endArrow=none;html=1;rounded=0;fontSize=12;startSize=8;endSize=8;curved=1;" parent="1" target="82EgqDNztt_MjqkxvQMU-21" edge="1">
          <mxGeometry width="50" height="50" relative="1" as="geometry">
            <mxPoint x="700" y="430" as="sourcePoint" />
            <mxPoint x="700" y="380" as="targetPoint" />
          </mxGeometry>
        </mxCell>
      </root>
    </mxGraphModel>
  </diagram>
</mxfile>
